<svg xmlns="http://www.w3.org/2000/svg" xmlns:xlink="http://www.w3.org/1999/xlink" width="26" height="27" viewBox="0 0 26 27"><defs><path id="vt2ca" d="M1114.6 204.7l2.72 2.08c.26.26.26.52.13.91l-2.6 4.55c-.13.26-.39.39-.78.26l-3.25-1.3a10.6 10.6 0 0 1-2.2 1.3l-.53 3.38c-.13.39-.26.52-.65.52h-5.2c-.26 0-.52-.13-.65-.52l-.52-3.38a7.61 7.61 0 0 1-2.2-1.3l-3.26 1.3c-.39.13-.65 0-.78-.26l-2.6-4.55c-.26-.39-.13-.65.13-.91l2.73-2.08v-1.3-1.3l-2.73-2.08c-.26-.26-.26-.52-.13-.91l2.6-4.55c.13-.26.4-.39.78-.26l3.25 1.3a10.6 10.6 0 0 1 2.21-1.3l.52-3.38c.13-.39.26-.52.65-.52h5.2c.26 0 .52.13.65.52l.52 3.38a7.6 7.6 0 0 1 2.21 1.3l3.25-1.3c.4-.13.65 0 .78.26l2.6 4.55c.26.39.13.65-.13.91l-2.73 2.08v2.6zm-12.88 1.95c.91.91 1.95 1.3 3.25 1.3s2.34-.39 3.25-1.3a4.31 4.31 0 0 0 1.3-3.25c0-1.3-.39-2.34-1.3-3.25a4.31 4.31 0 0 0-3.25-1.3c-1.3 0-2.34.39-3.25 1.3a4.31 4.31 0 0 0-1.3 3.25c0 1.3.4 2.34 1.3 3.25z"/></defs><g><g transform="translate(-1092 -190)"><use fill="#668" xlink:href="#vt2ca"/></g></g></svg>