<?xml version="1.0" encoding="utf-8"?>
<!-- Generator: Adobe Illustrator 22.0.1, SVG Export Plug-In . SVG Version: 6.00 Build 0)  -->
<svg version="1.1" id="katman_1" xmlns="http://www.w3.org/2000/svg" xmlns:xlink="http://www.w3.org/1999/xlink" x="0px" y="0px"
	 width="312.4px" height="68.1px" viewBox="0 0 312.4 68.1" style="enable-background:new 0 0 312.4 68.1;" xml:space="preserve">
<style type="text/css">
	.st0{fill:#AF1D19;}
	.st1{fill:#29B6BA;}
</style>
<g>
	<g>
		<path d="M97.3,15.3V8.2c0-4.3,2.2-7.1,6.8-7.1s6.8,2.8,6.8,7.1v7.1c0,6-2.2,8.4-6.8,8.4S97.3,21.3,97.3,15.3z M108.1,15.5V8.2
			c0-4.5-3.1-4.7-4-4.7s-4,0.1-4,4.7v7.3c0,4.7,1.4,5.9,4,5.9C106.7,21.4,108.1,20.2,108.1,15.5z"/>
		<path d="M118.4,13.3v10h-2.8V1.6h7.5c3.8,0,5.2,2.7,5.2,5.4c0,2.5-1.4,4.5-4,4.9V12c2.5,0.4,3.4,1.2,3.5,5.6
			c0,0.9,0.3,4.3,0.8,5.7h-2.9c-0.8-1.5-0.6-4.3-0.8-7.2c-0.2-2.6-2.3-2.8-3.3-2.8H118.4z M118.4,10.9h4.1c2,0,2.9-1.7,2.9-3.6
			c0-1.6-0.8-3.3-2.9-3.3h-4.2V10.9z"/>
		<path d="M135.5,23.3h-2.8V1.6h2.8V23.3z"/>
		<path d="M140.7,23.3V1.6h11.2V4h-8.4v7h7.8v2.4h-7.8v7.5h8.6v2.4H140.7z"/>
		<path d="M170.7,1.6v21.7H167l-8.5-18.8h-0.1v18.8h-2.5V1.6h3.9l8.4,18.5h0.1V1.6H170.7z"/>
		<path d="M187.9,1.6V4h-5.7v19.3h-2.8V4h-5.7V1.6H187.9z"/>
		<path d="M187.8,13.9h6.6v2.3h-6.6V13.9z"/>
		<path d="M201.7,23.3h-2.8V1.6h2.8V23.3z"/>
		<path d="M221.9,1.6v21.7h-3.8l-8.5-18.8h-0.1v18.8H207V1.6h3.9l8.4,18.5h0.1V1.6H221.9z"/>
		<path d="M229,16.8v0.6c0,2.9,1.9,3.9,3.6,3.9c2.2,0,3.9-0.9,3.9-3.5c0-4.8-9.7-4.3-9.7-10.8c0-3.8,2.7-5.9,6.4-5.9
			c4,0,6.2,1.9,6,6.3h-2.9c0-2.4-0.7-3.9-3.3-3.9c-1.6,0-3.3,0.8-3.3,3.2c0,4.8,9.7,4.1,9.7,10.9c0,4.6-3.2,6-6.7,6
			c-6.4,0.1-6.4-4.8-6.3-6.9H229z"/>
		<path d="M255.7,1.6V4H250v19.3h-2.8V4h-5.7V1.6H255.7z"/>
		<path d="M261.7,23.3h-2.8V1.6h2.8V23.3z"/>
		<path d="M279,1.6V4h-5.7v19.3h-2.8V4h-5.7V1.6H279z"/>
		<path d="M281.8,1.6h2.8v13.9c0,4.7,1.4,5.9,4,5.9c2.6,0,4-1.2,4-5.9V1.6h2.8v13.7c0,6-2.2,8.4-6.8,8.4s-6.8-2.4-6.8-8.4V1.6z"/>
		<path d="M312.4,1.6V4h-5.7v19.3h-2.8V4h-5.7V1.6H312.4z"/>
	</g>
	<g>
		<path d="M100.5,53.3h-2.8V31.6h2.8V53.3z"/>
		<path d="M107.9,46.8v0.6c0,2.9,1.9,3.9,3.6,3.9c2.2,0,3.9-0.9,3.9-3.5c0-4.8-9.7-4.3-9.7-10.8c0-3.8,2.7-5.9,6.4-5.9
			c4,0,6.2,1.9,6,6.3h-2.9c0-2.4-0.7-3.9-3.3-3.9c-1.6,0-3.3,0.8-3.3,3.2c0,4.8,9.7,4.1,9.7,10.9c0,4.6-3.1,6-6.7,6
			c-6.4,0.1-6.4-4.8-6.3-6.9H107.9z"/>
		<path d="M134.6,31.6V34h-5.7v19.3h-2.8V34h-5.7v-2.4H134.6z"/>
		<path d="M140.1,31.6h3.5l7,21.7h-3.1l-1.6-5.2h-8.4l-1.6,5.2h-2.8L140.1,31.6z M141.8,34.2L141.8,34.2l-3.5,11.5h6.9L141.8,34.2z"
			/>
		<path d="M168.5,31.6v21.7h-3.8l-8.5-18.8h-0.1v18.8h-2.5V31.6h3.9l8.4,18.5h0.1V31.6H168.5z"/>
		<path d="M173.8,53.3V31.6h7c3,0,4,1,4.8,2.2c0.8,1.2,0.9,2.5,0.9,2.9c0,2.7-0.9,4.5-3.7,5.1V42c3.1,0.4,4.4,2.2,4.4,5.2
			c0,5.5-4,6.1-6.5,6.1H173.8z M176.6,40.7h4c2.2,0,3.2-1.4,3.2-3.5c0-1.8-1-3.3-3.3-3.3h-3.9V40.7z M176.6,50.9h3.9
			c2.9,0,4-2.1,4-3.7c0-3.5-2.1-4-5-4h-2.9V50.9z"/>
		<path d="M191.8,31.6h2.8v13.9c0,4.7,1.4,5.9,4,5.9c2.6,0,4-1.2,4-5.9V31.6h2.8v13.7c0,6-2.2,8.4-6.8,8.4s-6.8-2.4-6.8-8.4V31.6z"
			/>
		<path d="M210.2,53.3V31.6h2.8v19.3h8v2.4H210.2z"/>
	</g>
	<g>
		<path class="st0" d="M7,0C5,0,3.2,0.8,1.9,2.2C0.4,3.8-0.2,5.9,0.1,8l6.2,39.2c0.3,1.9,1.4,3.7,3.1,4.7c1.1,0.7,2.5,1.1,3.8,1.1
			c0.6,0,1.2-0.1,1.8-0.2L58,41.6c2.8-0.7,4.9-3.2,5.2-6.1l2.2-23.6c0.2-1.9-0.4-3.7-1.6-5.1c-1.2-1.4-2.9-2.3-4.8-2.5L7.5,0
			C7.3,0,7.2,0,7,0 M7,7l51.6,4.3l-2.2,23.6L13.1,46.2L7,7z"/>
		<path class="st1" d="M39.4,20.6c-0.8,0-0.8-0.1-1.6,0.2c-0.2,0.1-0.6-0.2-0.8-0.1l-3,1l-13.8,6.1c-2.1,0.9-3.6,2.8-4,5
			c-0.5,2.2,0.2,4.5,1.7,6.1l25.3,27.1c1.4,1.5,3.2,2.2,5.1,2.2c1.7,0,3.4-0.6,4.7-1.8l31.6-29.2c2-1.8,2.7-4.6,1.9-7.2
			c-0.8-2.6-3-4.4-5.7-4.8l-37.1-4.9l-3.2,0.1c-0.2,0,0-0.1-0.2-0.1C40.3,20.2,39.6,20.6,39.4,20.6 M39.8,26.7L80,32L48.4,61.2
			L23.1,34.1L39.8,26.7z"/>
	</g>
	<polyline class="st0" points="58.3,13.7 56.5,32.3 63.4,33 65.2,14.4 	"/>
</g>
</svg>
