<svg xmlns="http://www.w3.org/2000/svg" viewBox="3151 225 18 20">
  <defs>
    <style>
      .cls-1 {
        fill: #668;
        fill-rule: evenodd;
      }
    </style>
  </defs>
  <path id="Katalog_icon" class="cls-1" d="M16.714,0H2.571A1.272,1.272,0,0,0,1.286,1.25v2.5H.643A.6.6,0,0,0,0,4.375.6.6,0,0,0,.643,5h.643V7.5H.643a.625.625,0,1,0,0,1.25h.643v2.5H.643a.625.625,0,1,0,0,1.25h.643V15H.643a.625.625,0,1,0,0,1.25h.643v2.5A1.272,1.272,0,0,0,2.571,20H16.714A1.272,1.272,0,0,0,18,18.75V1.25A1.272,1.272,0,0,0,16.714,0ZM12.857,18.75H3.214a.6.6,0,0,1-.643-.625V16.25h.643a.625.625,0,1,0,0-1.25H2.571V12.5h.643a.625.625,0,1,0,0-1.25H2.571V8.75h.643a.625.625,0,1,0,0-1.25H2.571V5h.643a.6.6,0,0,0,.643-.625.6.6,0,0,0-.643-.625H2.571V1.875a.6.6,0,0,1,.643-.625h9.643Zm3.857-.625a.6.6,0,0,1-.643.625H14.143V1.25h1.929a.6.6,0,0,1,.643.625Z" transform="translate(3151 225)"/>
</svg>
