<svg xmlns="http://www.w3.org/2000/svg" viewBox="3151 1007 20 20">
  <defs>
    <style>
      .cls-1 {
        fill: #668;
        fill-rule: evenodd;
      }
    </style>
  </defs>
  <path id="Pfad_270" data-name="Pfad 270" class="cls-1" d="M10,3.75A6.25,6.25,0,1,0,16.25,10,6.268,6.268,0,0,0,10,3.75ZM10,15a5,5,0,1,1,5-5A5.015,5.015,0,0,1,10,15Zm0-7.5A2.5,2.5,0,1,0,12.5,10,2.507,2.507,0,0,0,10,7.5Zm0,3.75A1.25,1.25,0,1,1,11.25,10,1.254,1.254,0,0,1,10,11.25ZM10,0A10,10,0,1,0,20,10,10.029,10.029,0,0,0,10,0Zm0,18.75A8.75,8.75,0,1,1,18.75,10,8.776,8.776,0,0,1,10,18.75Z" transform="translate(3151 1007)"/>
</svg>
