<svg xmlns="http://www.w3.org/2000/svg" viewBox="3153 278 17.5 20">
  <defs>
    <style>
      .cls-1 {
        fill: #668;
        fill-rule: evenodd;
      }
    </style>
  </defs>
  <path id="Pfad_268" data-name="Pfad 268" class="cls-1" d="M13.75,3.75h-10V5h10Zm0,5h-10V10h10ZM0,0V20H1.313l2.313-2.5L6.188,20l2.5-2.5L11.25,20l2.375-2.5L16.063,20H17.5V0ZM16.25,18.313l-1.687-1.687-.875-.938-.875.938L11.25,18.25,9.563,16.625l-.875-.875-.875.875L6.188,18.25,4.5,16.625l-.938-.875-.875.938L1.25,18.25v-17h15Zm-2.5-7.062h-10V12.5h10Z" transform="translate(3153 278)"/>
</svg>
