<svg xmlns="http://www.w3.org/2000/svg" viewBox="3151 959 20 20">
  <defs>
    <style>
      .cls-1 {
        fill: #668;
        fill-rule: evenodd;
      }
    </style>
  </defs>
  <path id="Help_icon" class="cls-1" d="M10,0A10,10,0,1,0,20,10,10.029,10.029,0,0,0,10,0Zm2.5,1.688a8.786,8.786,0,0,1,5.875,5.875H14.313A5.039,5.039,0,0,0,12.5,5.75ZM13.75,10A3.75,3.75,0,1,1,10,6.25,3.761,3.761,0,0,1,13.75,10Zm-5-8.625A8.47,8.47,0,0,1,10,1.25a8.47,8.47,0,0,1,1.25.125V5.188a4.26,4.26,0,0,0-2.5,0ZM7.5,1.688V5.75A5.039,5.039,0,0,0,5.688,7.563H1.625A8.665,8.665,0,0,1,7.5,1.688ZM1.25,10a8.47,8.47,0,0,1,.125-1.25H5.188a4.26,4.26,0,0,0,0,2.5H1.375A8.47,8.47,0,0,1,1.25,10ZM7.5,18.375A8.912,8.912,0,0,1,1.625,12.5H5.688A5.039,5.039,0,0,0,7.5,14.313Zm3.75.25A8.47,8.47,0,0,1,10,18.75a8.47,8.47,0,0,1-1.25-.125V14.812a4.26,4.26,0,0,0,2.5,0Zm1.25-.25V14.313A5.039,5.039,0,0,0,14.313,12.5h4.063A8.912,8.912,0,0,1,12.5,18.375Zm2.313-7.125a4.26,4.26,0,0,0,0-2.5h3.813A8.47,8.47,0,0,1,18.75,10a8.47,8.47,0,0,1-.125,1.25Z" transform="translate(3151 959)"/>
</svg>
