<svg xmlns="http://www.w3.org/2000/svg" viewBox="3151 172 20 20">
  <defs>
    <style>
      .cls-1 {
        fill: #668;
        fill-rule: evenodd;
      }
    </style>
  </defs>
  <path id="Edition_icon" class="cls-1" d="M18.625.076l-8.312,2.19a2.063,2.063,0,0,1-.875,0l-8-2.19A1.113,1.113,0,0,0,0,1.14v15.2a1.482,1.482,0,0,0,1.063,1.377l8.063,2.253a3.3,3.3,0,0,0,.813.063,3.3,3.3,0,0,0,.75-.063l8.25-2.253A1.465,1.465,0,0,0,20,16.345V1.14A1.084,1.084,0,0,0,18.625.076ZM9.375,18.723l-8-2.19c-.062,0-.125-.125-.125-.188V1.328l7.875,2.19c.063,0,.188.063.25.063Zm9.375-2.378a.282.282,0,0,1-.187.188L10.625,18.66V3.518h.063l8.125-2.19V16.345ZM12.563,7.21h.188l4.375-1.251a.68.68,0,0,0,.438-.751.643.643,0,0,0-.75-.438L12.438,6.021A.68.68,0,0,0,12,6.772.505.505,0,0,0,12.563,7.21Zm0,3.754h.188l4.375-1.251a.68.68,0,0,0,.438-.751.643.643,0,0,0-.75-.438L12.438,9.775a.68.68,0,0,0-.438.751A.505.505,0,0,0,12.563,10.964Zm0,3.754h.188l4.375-1.251a.68.68,0,0,0,.438-.751.643.643,0,0,0-.75-.438l-4.375,1.251A.68.68,0,0,0,12,14.28.505.505,0,0,0,12.563,14.718ZM7.688,5.958,3.313,4.707a.679.679,0,0,0-.75.438A.717.717,0,0,0,3,5.958L7.375,7.21h.188a.753.753,0,0,0,.625-.438A.7.7,0,0,0,7.688,5.958Zm0,3.754L3.313,8.461A.615.615,0,0,0,3,9.65L7.375,10.9h.188a.753.753,0,0,0,.625-.438A.665.665,0,0,0,7.688,9.712Zm0,3.754L3.313,12.215A.615.615,0,0,0,3,13.4l4.375,1.251h.188a.753.753,0,0,0,.625-.438A.665.665,0,0,0,7.688,13.467Z" transform="translate(3151 171.963)"/>
</svg>
