<svg xmlns="http://www.w3.org/2000/svg" viewBox="981 443 20 20">
  <defs>
    <style>
      .cls-1 {
        fill: #668;
        fill-rule: evenodd;
      }
    </style>
  </defs>
  <path id="Pfad_338" data-name="Pfad 338" class="cls-1" d="M1255,626.333h-3.333V623a.63.63,0,0,0-.667-.667.717.717,0,0,0-.667.667v3.333H1247a.63.63,0,0,0-.667.667.717.717,0,0,0,.667.667h3.333V631a.63.63,0,0,0,.667.667.717.717,0,0,0,.667-.667v-3.333H1255a.63.63,0,0,0,.667-.667A.717.717,0,0,0,1255,626.333ZM1251,617a10,10,0,1,0,10,10A9.987,9.987,0,0,0,1251,617Zm0,18.667a8.667,8.667,0,1,1,8.667-8.667A8.649,8.649,0,0,1,1251,635.667Z" transform="translate(-260 -174)"/>
</svg>
