<svg xmlns="http://www.w3.org/2000/svg" viewBox="3416 26 20 20">
  <defs>
    <style>
      .cls-1 {
        fill: #668;
        fill-rule: evenodd;
      }
    </style>
  </defs>
  <path id="Pfad_267" data-name="Pfad 267" class="cls-1" d="M19.813,19,14.25,13.438a7.985,7.985,0,0,0,2-5.313,8.167,8.167,0,1,0-2.813,6.125L19,19.813A.575.575,0,0,0,19.813,19ZM8.125,15A6.875,6.875,0,1,1,15,8.125,6.855,6.855,0,0,1,8.125,15Zm2.938-9.812a.6.6,0,0,0-.875,0L8.125,7.25,6,5.188a.619.619,0,0,0-.875.875L7.25,8.188,5.125,10.313a.533.533,0,0,0,0,.813.6.6,0,0,0,.875,0L8.125,9l2.125,2.125a.6.6,0,0,0,.875,0,.533.533,0,0,0,0-.812L8.938,8.125,11.063,6A.533.533,0,0,0,11.063,5.188Z" transform="translate(3416 26)"/>
</svg>
