<svg xmlns="http://www.w3.org/2000/svg" viewBox="1279 418 11.411 70">
  <defs>
    <style>
      .cls-1, .cls-2 {
        fill: #668;
      }

      .cls-2 {
        fill-rule: evenodd;
      }
    </style>
  </defs>
  <g id="Gruppe_123" data-name="Gruppe 123" transform="translate(817 418)">
    <rect id="Rechteck_113" data-name="Rechteck 113" class="cls-1" width="1" height="19" transform="translate(467)"/>
    <rect id="Rechteck_114" data-name="Rechteck 114" class="cls-1" width="1" height="19" transform="translate(467 51)"/>
    <g id="Gruppe_122" data-name="Gruppe 122" transform="translate(4 6)">
      <path id="Pfad_344" data-name="Pfad 344" class="cls-2" d="M10.811,22.605H2.042l3.243,3.243a.595.595,0,0,1-.841.841L.18,22.425h0A.545.545,0,0,1,0,22H0a.428.428,0,0,1,.18-.36h0L4.444,17.38a.595.595,0,1,1,.841.841L2.042,21.464h8.769a.6.6,0,0,1,.6.6A.643.643,0,0,1,10.811,22.605Z" transform="translate(458 12.13)"/>
      <path id="Pfad_345" data-name="Pfad 345" class="cls-2" d="M11.411,4.8a.428.428,0,0,0-.18-.36h0L6.967.18a.581.581,0,0,0-.841,0,.581.581,0,0,0,0,.841L9.369,4.264H.6a.6.6,0,0,0,0,1.2H9.369L6.126,8.709a.595.595,0,0,0,.841.841l4.264-4.264h0a.682.682,0,0,0,.18-.48Z" transform="translate(458 19)"/>
    </g>
  </g>
</svg>
